<svg id="a6f1fb59-21f2-4e02-a0ae-87fc4f98f2bc" data-name="Calque 1" xmlns="http://www.w3.org/2000/svg" viewBox="0 0 99.74 89.03"><path d="M79,20.17c-6.65.77-11.74-.93-15.66-6.79-1.23-1.84-4.57-2.61-7.1-3.16-2.38-.52-5,.2-7.45-.17-6.94-1-12,1.34-16.09,7.1-1.15,1.63-4,2.65-6.2,2.82-5.27.4-10.59.13-16.3.13V79.22H89.56V20.1C85.86,20.1,82.37,19.77,79,20.17ZM50,74.23A24.44,24.44,0,1,1,74.63,49.44,24.53,24.53,0,0,1,50,74.23Z" transform="translate(0 0)" style="fill:none"/><path d="M49.8,35.33c-8,0-15.08,7.11-14.95,15.05a15.28,15.28,0,0,0,15.3,14.67c7.86-.16,14.69-7,14.69-14.79A15.24,15.24,0,0,0,49.8,35.33Z" transform="translate(0 0)" style="fill:none"/><path d="M99.66,21c0-7.2-3.58-10.58-10.84-10.88a27.11,27.11,0,0,0-5.48,0c-7,1.11-12-1.41-16.2-7C65.92,1.51,63.06.38,60.89.27c-7.31-.35-14.66-.37-22,0-2.32.12-5.45,1.27-6.69,3-4.14,5.86-9.42,7.9-16.29,6.86a25.87,25.87,0,0,0-4.49,0C3.45,10.32,0,13.82,0,21.88q0,27.45,0,54.9C0,85.69,3.34,89,12.47,89c12.49,0,25,0,37.47,0,12.82,0,25.64.08,38.47,0,7.36-.06,11.2-3.8,11.25-11Q99.82,49.48,99.66,21ZM89.56,79.22H10.18V20.1c5.71,0,11,.27,16.3-.13,2.17-.17,5.05-1.19,6.2-2.82,4-5.76,9.15-8.13,16.09-7.1,2.44.37,5.07-.35,7.45.17,2.53.55,5.87,1.32,7.1,3.16,3.92,5.86,9,7.56,15.66,6.79,3.39-.4,6.88-.07,10.58-.07Z" transform="translate(0 0)" style="fill:#901c1c"/><path d="M49.71,25.35A24.44,24.44,0,1,0,74.63,49.44,24.73,24.73,0,0,0,49.71,25.35Zm.44,39.7a15.28,15.28,0,0,1-15.3-14.67c-.13-7.94,6.93-15.06,14.95-15.05a15.24,15.24,0,0,1,15,14.93C64.84,58,58,64.89,50.15,65.05Z" transform="translate(0 0)" style="fill:#901c1c"/></svg>